<?xml version="1.0" encoding="utf-8"?>
<!-- Generator: Adobe Illustrator 13.0.0, SVG Export Plug-In . SVG Version: 6.00 Build 14948)  -->
<!DOCTYPE svg PUBLIC "-//W3C//DTD SVG 1.1//EN" "http://www.w3.org/Graphics/SVG/1.1/DTD/svg11.dtd">
<svg version="1.1" id="Layer_1" xmlns="http://www.w3.org/2000/svg" xmlns:xlink="http://www.w3.org/1999/xlink" x="0px" y="0px"
	 width="56.693px" height="56.693px" viewBox="0 0 56.693 56.693" enable-background="new 0 0 56.693 56.693" xml:space="preserve">
<g>
	<path fill="#FFFFFF" d="M16.553,5.476H5.977c-0.553,0-1,0.446-1,1v10.574c0,0.554,0.447,1,1,1h10.574c0.553,0,1-0.446,1-1V6.476
		C17.553,5.923,17.105,5.476,16.553,5.476z M15.553,16.051H6.977V7.476h8.574v8.574H15.553z"/>
	<path fill="#FFFFFF" d="M16.553,22.681H5.977c-0.553,0-1,0.446-1,1v10.573c0,0.554,0.447,1,1,1h10.574c0.553,0,1-0.446,1-1V23.681
		C17.553,23.128,17.105,22.681,16.553,22.681z M15.553,33.255H6.977v-8.573h8.574v8.573H15.553z"/>
	<path fill="#FFFFFF" d="M16.553,39.885H5.977c-0.553,0-1,0.447-1,1V51.46c0,0.554,0.447,1,1,1h10.574c0.553,0,1-0.446,1-1V40.885
		C17.553,40.333,17.105,39.885,16.553,39.885z M15.553,50.461H6.977v-8.575h8.574v8.575H15.553z"/>
	<path fill="#FFFFFF" d="M34.181,5.476H23.606c-0.552,0-1,0.446-1,1v10.574c0,0.554,0.448,1,1,1h10.575c0.552,0,1-0.446,1-1V6.476
		C35.181,5.923,34.734,5.476,34.181,5.476z M33.181,16.051h-8.575V7.476h8.575V16.051z"/>
	<path fill="#FFFFFF" d="M34.181,22.681H23.606c-0.552,0-1,0.446-1,1v10.573c0,0.554,0.448,1,1,1h10.575c0.552,0,1-0.446,1-1V23.681
		C35.181,23.128,34.734,22.681,34.181,22.681z M33.181,33.255h-8.575v-8.573h8.575V33.255z"/>
	<path fill="#FFFFFF" d="M34.181,39.885H23.606c-0.552,0-1,0.447-1,1V51.46c0,0.554,0.448,1,1,1h10.575c0.552,0,1-0.446,1-1V40.885
		C35.181,40.333,34.734,39.885,34.181,39.885z M33.181,50.461h-8.575v-8.575h8.575V50.461z"/>
	<path fill="#FFFFFF" d="M51.81,5.476H41.235c-0.552,0-1,0.446-1,1v10.574c0,0.554,0.448,1,1,1H51.81c0.552,0,1-0.446,1-1V6.476
		C52.81,5.923,52.362,5.476,51.81,5.476z M50.81,16.051h-8.575V7.476h8.575V16.051z"/>
	<path fill="#FFFFFF" d="M51.81,22.681H41.235c-0.552,0-1,0.446-1,1v10.573c0,0.554,0.448,1,1,1H51.81c0.552,0,1-0.446,1-1V23.681
		C52.81,23.128,52.362,22.681,51.81,22.681z M50.81,33.255h-8.575v-8.573h8.575V33.255z"/>
	<path fill="#FFFFFF" d="M51.81,39.885H41.235c-0.552,0-1,0.447-1,1V51.46c0,0.554,0.448,1,1,1H51.81c0.552,0,1-0.446,1-1V40.885
		C52.81,40.333,52.362,39.885,51.81,39.885z M50.81,50.461h-8.575v-8.575h8.575V50.461z"/>
</g>
</svg>
